<svg xmlns="http://www.w3.org/2000/svg" xmlns:xlink="http://www.w3.org/1999/xlink" width="1024" zoomAndPan="magnify" viewBox="0 0 768 767.999994" height="1024" preserveAspectRatio="xMidYMid meet" version="1.0"><defs><clipPath id="ccdbd38b6a"><path d="M 209 209 L 559 209 L 559 379.050781 L 209 379.050781 Z M 209 209 " clip-rule="nonzero"/></clipPath><clipPath id="142c62e969"><path d="M 203 203 L 565 203 L 565 379.050781 L 203 379.050781 Z M 203 203 " clip-rule="nonzero"/></clipPath><clipPath id="eb9df29e48"><path d="M 377 76.800781 L 391 76.800781 L 391 185 L 377 185 Z M 377 76.800781 " clip-rule="nonzero"/></clipPath><clipPath id="d78b4ca657"><path d="M 583 377 L 691.050781 377 L 691.050781 379.050781 L 583 379.050781 Z M 583 377 " clip-rule="nonzero"/></clipPath><clipPath id="ecb6922dce"><path d="M 76.800781 377 L 185 377 L 185 379.050781 L 76.800781 379.050781 Z M 76.800781 377 " clip-rule="nonzero"/></clipPath><clipPath id="cacae84fcb"><path d="M 76.800781 389.121094 L 691.050781 389.121094 L 691.050781 691.050781 L 76.800781 691.050781 Z M 76.800781 389.121094 " clip-rule="nonzero"/></clipPath><clipPath id="361831a11e"><path d="M 383 389.121094 L 513 389.121094 L 513 471 L 383 471 Z M 383 389.121094 " clip-rule="nonzero"/></clipPath><clipPath id="e35bce8ef4"><path d="M 625 389.121094 L 689 389.121094 L 689 490 L 625 490 Z M 625 389.121094 " clip-rule="nonzero"/></clipPath><clipPath id="60b5bf1b65"><path d="M 82 375.675781 L 686 375.675781 L 686 392.304688 L 82 392.304688 Z M 82 375.675781 " clip-rule="nonzero"/></clipPath><clipPath id="43b77c49e1"><path d="M 76.800781 374.785156 L 691.050781 374.785156 L 691.050781 393.207031 L 76.800781 393.207031 Z M 76.800781 374.785156 " clip-rule="nonzero"/></clipPath></defs><rect x="-76.8" width="921.6" fill="#ffffff" y="-76.799999" height="921.599993" fill-opacity="1"/><rect x="-76.8" width="921.6" fill="#f9fafb" y="-76.799999" height="921.599993" fill-opacity="1"/><g clip-path="url(#ccdbd38b6a)"><path fill="#ffffff" d="M 558.222656 383.996094 C 558.222656 480.21875 480.21875 558.242188 383.996094 558.242188 C 287.773438 558.242188 209.769531 480.21875 209.769531 383.996094 C 209.769531 287.773438 287.773438 209.769531 383.996094 209.769531 C 480.21875 209.769531 558.222656 287.773438 558.222656 383.996094 " fill-opacity="1" fill-rule="nonzero"/></g><g clip-path="url(#142c62e969)"><path fill="#000000" d="M 383.996094 215.894531 C 291.304688 215.894531 215.894531 291.304688 215.894531 383.996094 C 215.894531 476.683594 291.304688 552.117188 383.996094 552.117188 C 476.683594 552.117188 552.09375 476.683594 552.09375 383.996094 C 552.09375 291.304688 476.683594 215.894531 383.996094 215.894531 Z M 383.996094 564.371094 C 284.546875 564.371094 203.640625 483.445312 203.640625 383.996094 C 203.640625 284.546875 284.546875 203.640625 383.996094 203.640625 C 483.445312 203.640625 564.351562 284.546875 564.351562 383.996094 C 564.351562 483.445312 483.445312 564.371094 383.996094 564.371094 " fill-opacity="1" fill-rule="nonzero"/></g><g clip-path="url(#eb9df29e48)"><path fill="#000000" d="M 383.996094 184.746094 C 380.605469 184.746094 377.867188 182.011719 377.867188 178.621094 L 377.867188 82.925781 C 377.867188 79.542969 380.605469 76.796875 383.996094 76.796875 C 387.386719 76.796875 390.121094 79.542969 390.121094 82.925781 L 390.121094 178.621094 C 390.121094 182.011719 387.386719 184.746094 383.996094 184.746094 " fill-opacity="1" fill-rule="nonzero"/></g><g clip-path="url(#d78b4ca657)"><path fill="#000000" d="M 685.0625 390.121094 L 589.371094 390.121094 C 585.980469 390.121094 583.242188 387.386719 583.242188 383.996094 C 583.242188 380.625 585.980469 377.867188 589.371094 377.867188 L 685.0625 377.867188 C 688.453125 377.867188 691.191406 380.625 691.191406 383.996094 C 691.191406 387.386719 688.453125 390.121094 685.0625 390.121094 " fill-opacity="1" fill-rule="nonzero"/></g><g clip-path="url(#ecb6922dce)"><path fill="#000000" d="M 178.621094 390.121094 L 82.925781 390.121094 C 79.542969 390.121094 76.796875 387.386719 76.796875 383.996094 C 76.796875 380.625 79.542969 377.867188 82.925781 377.867188 L 178.621094 377.867188 C 182.011719 377.867188 184.746094 380.625 184.746094 383.996094 C 184.746094 387.386719 182.011719 390.121094 178.621094 390.121094 " fill-opacity="1" fill-rule="nonzero"/></g><path fill="#000000" d="M 529.21875 244.898438 C 527.644531 244.898438 526.074219 244.308594 524.867188 243.101562 C 522.476562 240.710938 522.476562 236.832031 524.867188 234.441406 L 592.558594 166.773438 C 594.945312 164.382812 598.828125 164.382812 601.21875 166.773438 C 603.605469 169.164062 603.605469 173.042969 601.21875 175.433594 L 533.550781 243.101562 C 532.34375 244.308594 530.769531 244.898438 529.21875 244.898438 " fill-opacity="1" fill-rule="nonzero"/><path fill="#000000" d="M 238.773438 244.898438 C 237.199219 244.898438 235.625 244.308594 234.441406 243.101562 L 166.773438 175.433594 C 164.382812 173.042969 164.382812 169.164062 166.773438 166.773438 C 169.183594 164.382812 173.042969 164.382812 175.433594 166.773438 L 243.101562 234.441406 C 245.492188 236.832031 245.492188 240.710938 243.101562 243.101562 C 241.917969 244.308594 240.34375 244.898438 238.773438 244.898438 " fill-opacity="1" fill-rule="nonzero"/><path fill="#000000" d="M 573.09375 309.996094 C 570.703125 309.996094 568.433594 308.585938 567.433594 306.257812 C 566.128906 303.132812 567.578125 299.535156 570.703125 298.230469 L 658.796875 260.871094 C 661.921875 259.566406 665.515625 261.015625 666.84375 264.121094 C 668.171875 267.246094 666.699219 270.839844 663.597656 272.167969 L 575.480469 309.503906 C 574.707031 309.832031 573.890625 309.996094 573.09375 309.996094 " fill-opacity="1" fill-rule="nonzero"/><path fill="#000000" d="M 303.867188 201.027344 C 301.476562 201.027344 299.210938 199.636719 298.230469 197.308594 L 260.871094 109.183594 C 259.566406 106.070312 261.015625 102.472656 264.121094 101.148438 C 267.246094 99.832031 270.839844 101.285156 272.167969 104.40625 L 309.503906 192.507812 C 310.8125 195.632812 309.363281 199.230469 306.257812 200.554688 C 305.480469 200.882812 304.664062 201.027344 303.867188 201.027344 " fill-opacity="1" fill-rule="nonzero"/><path fill="#000000" d="M 193.324219 313.835938 C 192.570312 313.835938 191.792969 313.710938 191.039062 313.40625 L 102.195312 277.867188 C 99.050781 276.597656 97.519531 273.023438 98.78125 269.878906 C 100.039062 266.753906 103.605469 265.222656 106.742188 266.46875 L 195.59375 302.027344 C 198.738281 303.296875 200.25 306.847656 199.003906 309.996094 C 198.042969 312.382812 195.757812 313.835938 193.324219 313.835938 " fill-opacity="1" fill-rule="nonzero"/><path fill="#000000" d="M 460.285156 199.453125 C 459.507812 199.453125 458.75 199.308594 457.996094 199.003906 C 454.871094 197.757812 453.339844 194.183594 454.585938 191.039062 L 490.144531 102.195312 C 491.390625 99.050781 494.964844 97.519531 498.089844 98.78125 C 501.234375 100.03125 502.769531 103.597656 501.523438 106.742188 L 465.960938 195.59375 C 465.023438 198.003906 462.714844 199.453125 460.285156 199.453125 " fill-opacity="1" fill-rule="nonzero"/><path fill="#000000" d="M 348.925781 215.488281 C 346.066406 215.488281 343.511719 213.464844 342.921875 210.566406 L 326.601562 129.179688 C 325.925781 125.859375 328.070312 122.636719 331.398438 121.964844 C 334.730469 121.292969 337.9375 123.449219 338.609375 126.769531 L 354.949219 208.15625 C 355.605469 211.464844 353.460938 214.691406 350.152344 215.363281 C 349.742188 215.445312 349.332031 215.488281 348.925781 215.488281 " fill-opacity="1" fill-rule="nonzero"/><path fill="#000000" d="M 558.632812 355.074219 C 555.769531 355.074219 553.21875 353.050781 552.625 350.152344 C 551.972656 346.820312 554.117188 343.59375 557.445312 342.921875 L 638.820312 326.601562 C 642.128906 325.925781 645.355469 328.070312 646.03125 331.402344 C 646.683594 334.710938 644.539062 337.9375 641.230469 338.609375 L 559.855469 354.949219 C 559.449219 355.03125 559.039062 355.074219 558.632812 355.074219 " fill-opacity="1" fill-rule="nonzero"/><path fill="#000000" d="M 482.691406 241.835938 C 481.527344 241.835938 480.339844 241.507812 479.300781 240.816406 C 476.480469 238.933594 475.726562 235.136719 477.605469 232.316406 L 523.582031 163.21875 C 525.460938 160.402344 529.257812 159.644531 532.078125 161.523438 C 534.898438 163.382812 535.671875 167.203125 533.792969 170.019531 L 487.796875 239.097656 C 486.613281 240.875 484.671875 241.835938 482.691406 241.835938 " fill-opacity="1" fill-rule="nonzero"/><path fill="#000000" d="M 235.707031 291.429688 C 234.542969 291.429688 233.359375 291.082031 232.316406 290.386719 L 163.238281 244.410156 C 160.402344 242.53125 159.644531 238.730469 161.523438 235.914062 C 163.402344 233.09375 167.203125 232.316406 170.019531 234.21875 L 239.097656 280.195312 C 241.917969 282.074219 242.671875 285.871094 240.816406 288.691406 C 239.628906 290.46875 237.691406 291.429688 235.707031 291.429688 " fill-opacity="1" fill-rule="nonzero"/><path fill="#000000" d="M 531.117188 289.691406 C 529.15625 289.691406 527.238281 288.773438 526.054688 287.015625 C 524.132812 284.21875 524.867188 280.417969 527.667969 278.5 L 596.214844 231.703125 C 599.011719 229.804688 602.8125 230.519531 604.730469 233.320312 C 606.652344 236.117188 605.914062 239.9375 603.117188 241.835938 L 534.570312 288.628906 C 533.507812 289.34375 532.304688 289.691406 531.117188 289.691406 " fill-opacity="1" fill-rule="nonzero"/><path fill="#000000" d="M 283.566406 243 C 281.625 243 279.703125 242.058594 278.5 240.324219 L 231.703125 171.777344 C 229.804688 168.980469 230.519531 165.160156 233.320312 163.261719 C 236.117188 161.359375 239.914062 162.074219 241.835938 164.875 L 288.628906 233.421875 C 290.53125 236.21875 289.816406 240.019531 287.015625 241.9375 C 285.976562 242.652344 284.769531 243 283.566406 243 " fill-opacity="1" fill-rule="nonzero"/><path fill="#000000" d="M 208.828125 357.808594 C 208.460938 357.808594 208.09375 357.769531 207.707031 357.707031 L 126.089844 342.65625 C 122.761719 342.023438 120.5625 338.835938 121.175781 335.507812 C 121.789062 332.175781 124.964844 329.96875 128.308594 330.582031 L 209.929688 345.65625 C 213.261719 346.269531 215.46875 349.476562 214.855469 352.785156 C 214.300781 355.746094 211.730469 357.808594 208.828125 357.808594 " fill-opacity="1" fill-rule="nonzero"/><path fill="#000000" d="M 416.328125 214.957031 C 415.941406 214.957031 415.574219 214.914062 415.203125 214.855469 C 411.875 214.242188 409.667969 211.054688 410.28125 207.707031 L 425.355469 126.082031 C 425.949219 122.753906 429.15625 120.554688 432.484375 121.175781 C 435.8125 121.789062 438.019531 124.980469 437.40625 128.316406 L 422.332031 209.929688 C 421.800781 212.894531 419.207031 214.957031 416.328125 214.957031 " fill-opacity="1" fill-rule="nonzero"/><g clip-path="url(#cacae84fcb)"><path fill="#000000" d="M 691.191406 383.996094 C 691.191406 553.65625 553.65625 691.191406 383.996094 691.191406 C 214.335938 691.191406 76.796875 553.65625 76.796875 383.996094 C 76.796875 214.335938 214.335938 76.796875 383.996094 76.796875 C 553.65625 76.796875 691.191406 214.335938 691.191406 383.996094 M 673.652344 383.996094 C 673.652344 224.019531 543.96875 94.335938 383.996094 94.335938 C 224.019531 94.335938 94.335938 224.019531 94.335938 383.996094 C 94.335938 543.96875 224.019531 673.652344 383.996094 673.652344 C 543.96875 673.652344 673.652344 543.96875 673.652344 383.996094 Z M 673.652344 383.996094 " fill-opacity="1" fill-rule="nonzero"/></g><g clip-path="url(#361831a11e)"><path fill="#000000" d="M 512.253906 406.074219 C 512.253906 441.730469 483.351562 470.632812 447.695312 470.632812 C 412.042969 470.632812 383.140625 441.730469 383.140625 406.074219 C 383.140625 370.421875 412.042969 341.519531 447.695312 341.519531 C 483.351562 341.519531 512.253906 370.421875 512.253906 406.074219 M 494.714844 406.074219 C 494.714844 380.109375 473.664062 359.058594 447.695312 359.058594 C 421.730469 359.058594 400.679688 380.109375 400.679688 406.074219 C 400.679688 432.042969 421.730469 453.09375 447.695312 453.09375 C 473.664062 453.09375 494.714844 432.042969 494.714844 406.074219 Z M 494.714844 406.074219 " fill-opacity="1" fill-rule="nonzero"/></g><path fill="#000000" d="M 248.292969 495.261719 C 248.292969 524.226562 224.8125 547.707031 195.847656 547.707031 C 166.882812 547.707031 143.402344 524.226562 143.402344 495.261719 C 143.402344 466.296875 166.882812 442.816406 195.847656 442.816406 C 224.8125 442.816406 248.292969 466.296875 248.292969 495.261719 M 230.753906 495.261719 C 230.753906 475.984375 215.125 460.355469 195.847656 460.355469 C 176.566406 460.355469 160.9375 475.984375 160.9375 495.261719 C 160.9375 514.539062 176.566406 530.167969 195.847656 530.167969 C 215.125 530.167969 230.753906 514.539062 230.753906 495.261719 Z M 230.753906 495.261719 " fill-opacity="1" fill-rule="nonzero"/><g clip-path="url(#e35bce8ef4)"><path fill="#000000" d="M 682.121094 379.722656 L 677.816406 380.929688 L 678.441406 380.730469 L 674.238281 382.257812 L 674.851562 382.007812 L 670.773438 383.847656 L 671.363281 383.554688 L 667.4375 385.695312 L 668.003906 385.359375 L 664.25 387.789062 L 664.789062 387.410156 L 661.230469 390.117188 L 661.738281 389.695312 L 658.390625 392.664062 L 658.867188 392.207031 L 655.753906 395.417969 L 656.195312 394.925781 L 653.328125 398.359375 L 653.734375 397.839844 L 651.132812 401.476562 L 651.496094 400.925781 L 649.179688 404.753906 L 649.5 404.175781 L 647.476562 408.164062 L 647.75 407.566406 L 646.035156 411.695312 L 646.265625 411.078125 L 644.859375 415.324219 L 645.042969 414.691406 L 643.964844 419.03125 L 644.101562 418.382812 L 643.351562 422.792969 L 643.4375 422.140625 L 643.019531 426.5625 L 643.058594 425.90625 L 642.972656 430.34375 L 642.960938 429.691406 L 643.210938 434.121094 L 643.148438 433.46875 L 643.726562 437.871094 L 643.617188 437.222656 L 644.519531 441.570312 L 644.363281 440.933594 L 645.589844 445.199219 L 645.386719 444.578125 L 646.925781 448.738281 L 646.675781 448.132812 L 648.523438 452.167969 L 648.226562 451.585938 L 650.371094 455.472656 L 650.035156 454.910156 L 652.460938 458.625 L 652.082031 458.09375 L 654.777344 461.617188 L 654.363281 461.113281 L 657.316406 464.425781 L 656.859375 463.953125 L 660.050781 467.039062 L 659.566406 466.601562 L 662.976562 469.4375 L 662.460938 469.039062 L 666.074219 471.613281 L 665.527344 471.253906 L 669.324219 473.550781 C 673.46875 476.058594 674.792969 481.449219 672.285156 485.59375 C 669.777344 489.738281 664.386719 491.0625 660.242188 488.554688 L 656.445312 486.257812 C 656.257812 486.144531 656.078125 486.023438 655.898438 485.898438 L 652.285156 483.324219 C 652.105469 483.195312 651.933594 483.0625 651.765625 482.921875 L 648.351562 480.085938 C 648.183594 479.945312 648.023438 479.800781 647.867188 479.648438 L 644.675781 476.566406 C 644.515625 476.414062 644.367188 476.257812 644.21875 476.09375 L 641.269531 472.78125 C 641.121094 472.617188 640.984375 472.449219 640.851562 472.273438 L 638.152344 468.75 C 638.019531 468.578125 637.894531 468.398438 637.777344 468.214844 L 635.347656 464.5 C 635.230469 464.316406 635.117188 464.128906 635.011719 463.9375 L 632.867188 460.050781 C 632.765625 459.859375 632.664062 459.667969 632.574219 459.46875 L 630.726562 455.433594 C 630.636719 455.234375 630.554688 455.03125 630.476562 454.828125 L 628.9375 450.664062 C 628.863281 450.460938 628.792969 450.253906 628.734375 450.042969 L 627.507812 445.777344 C 627.445312 445.566406 627.394531 445.355469 627.351562 445.140625 L 626.445312 440.796875 C 626.402344 440.582031 626.367188 440.367188 626.335938 440.152344 L 625.757812 435.75 C 625.730469 435.535156 625.710938 435.316406 625.699219 435.097656 L 625.449219 430.667969 C 625.4375 430.449219 625.433594 430.230469 625.4375 430.011719 L 625.523438 425.574219 C 625.527344 425.359375 625.539062 425.140625 625.558594 424.921875 L 625.972656 420.503906 C 625.996094 420.285156 626.023438 420.066406 626.058594 419.851562 L 626.808594 415.441406 C 626.847656 415.226562 626.890625 415.011719 626.945312 414.796875 L 628.023438 410.457031 C 628.078125 410.242188 628.140625 410.03125 628.207031 409.824219 L 629.609375 405.574219 C 629.679688 405.367188 629.757812 405.160156 629.839844 404.957031 L 631.558594 400.828125 C 631.644531 400.625 631.734375 400.425781 631.835938 400.230469 L 633.859375 396.242188 C 633.957031 396.042969 634.066406 395.851562 634.179688 395.664062 L 636.496094 391.839844 C 636.609375 391.652344 636.730469 391.464844 636.859375 391.289062 L 639.457031 387.648438 C 639.585938 387.46875 639.722656 387.292969 639.863281 387.125 L 642.726562 383.691406 C 642.867188 383.523438 643.015625 383.359375 643.167969 383.199219 L 646.285156 379.992188 C 646.4375 379.832031 646.597656 379.679688 646.761719 379.535156 L 650.109375 376.570312 C 650.273438 376.421875 650.445312 376.285156 650.617188 376.152344 L 654.179688 373.445312 C 654.355469 373.3125 654.535156 373.1875 654.71875 373.066406 L 658.472656 370.636719 C 658.660156 370.515625 658.847656 370.402344 659.042969 370.296875 L 662.96875 368.15625 C 663.160156 368.050781 663.359375 367.953125 663.558594 367.863281 L 667.636719 366.023438 C 667.835938 365.933594 668.039062 365.847656 668.246094 365.773438 L 672.449219 364.246094 C 672.65625 364.171875 672.867188 364.101562 673.078125 364.042969 L 677.382812 362.835938 C 682.046875 361.527344 686.886719 364.246094 688.195312 368.910156 C 689.503906 373.574219 686.785156 378.414062 682.121094 379.722656 Z M 682.121094 379.722656 " fill-opacity="1" fill-rule="nonzero"/></g><path fill="#000000" d="M 528.421875 643.222656 L 526.273438 639.1875 L 526.628906 639.792969 L 524.164062 635.945312 L 524.566406 636.519531 L 521.800781 632.878906 L 522.25 633.421875 L 519.203125 630.011719 L 519.691406 630.515625 L 516.382812 627.363281 L 516.910156 627.824219 L 513.363281 624.945312 L 513.921875 625.363281 L 510.15625 622.777344 L 510.75 623.148438 L 506.789062 620.871094 L 507.410156 621.195312 L 503.277344 619.238281 L 503.921875 619.515625 L 499.648438 617.894531 L 500.3125 618.117188 L 495.925781 616.84375 L 496.605469 617.011719 L 492.128906 616.09375 L 492.820312 616.207031 L 488.285156 615.648438 L 488.980469 615.707031 L 484.417969 615.511719 L 485.117188 615.511719 L 480.550781 615.683594 L 481.25 615.628906 L 476.710938 616.164062 L 477.402344 616.054688 L 472.921875 616.949219 L 473.601562 616.785156 L 469.207031 618.035156 L 469.867188 617.820312 L 465.644531 619.390625 L 466.28125 619.125 L 462.195312 621.023438 L 462.808594 620.710938 L 458.882812 622.925781 L 459.472656 622.5625 L 455.734375 625.082031 L 456.289062 624.671875 L 452.761719 627.476562 L 453.285156 627.027344 L 449.988281 630.101562 L 450.476562 629.609375 L 447.433594 632.933594 L 447.878906 632.40625 L 445.105469 635.957031 L 445.507812 635.398438 L 443.023438 639.15625 L 443.382812 638.566406 L 441.199219 642.511719 L 441.511719 641.894531 L 439.648438 646 L 439.90625 645.359375 L 438.375 649.597656 L 438.582031 648.9375 L 437.386719 653.285156 L 437.542969 652.609375 L 436.691406 657.035156 L 436.796875 656.355469 L 436.296875 660.832031 L 436.347656 660.144531 L 436.203125 664.648438 L 436.195312 663.957031 L 436.40625 668.460938 L 436.347656 667.773438 L 436.910156 672.242188 C 437.515625 677.050781 434.113281 681.433594 429.308594 682.042969 C 424.503906 682.648438 420.117188 679.242188 419.511719 674.4375 L 418.945312 669.964844 C 418.917969 669.738281 418.898438 669.507812 418.886719 669.277344 L 418.675781 664.773438 C 418.667969 664.546875 418.664062 664.316406 418.671875 664.085938 L 418.816406 659.578125 C 418.824219 659.347656 418.839844 659.121094 418.867188 658.890625 L 419.367188 654.410156 C 419.390625 654.183594 419.425781 653.953125 419.46875 653.726562 L 420.320312 649.300781 C 420.363281 649.074219 420.414062 648.851562 420.476562 648.628906 L 421.671875 644.28125 C 421.734375 644.0625 421.804688 643.839844 421.882812 643.625 L 423.417969 639.386719 C 423.496094 639.171875 423.582031 638.957031 423.679688 638.746094 L 425.542969 634.644531 C 425.636719 634.433594 425.742188 634.226562 425.851562 634.023438 L 428.03125 630.082031 C 428.144531 629.878906 428.265625 629.683594 428.390625 629.488281 L 430.875 625.730469 C 431.003906 625.535156 431.136719 625.351562 431.277344 625.167969 L 434.050781 621.613281 C 434.195312 621.433594 434.34375 621.257812 434.5 621.085938 L 437.542969 617.765625 C 437.699219 617.59375 437.859375 617.429688 438.027344 617.273438 L 441.324219 614.199219 C 441.492188 614.042969 441.667969 613.890625 441.847656 613.75 L 445.378906 610.941406 C 445.558594 610.800781 445.742188 610.664062 445.933594 610.535156 L 449.671875 608.015625 C 449.863281 607.886719 450.058594 607.765625 450.261719 607.652344 L 454.183594 605.4375 C 454.386719 605.324219 454.589844 605.21875 454.800781 605.121094 L 458.886719 603.222656 C 459.097656 603.125 459.308594 603.035156 459.523438 602.953125 L 463.75 601.382812 C 463.964844 601.300781 464.1875 601.230469 464.410156 601.164062 L 468.804688 599.914062 C 469.03125 599.851562 469.257812 599.796875 469.484375 599.75 L 473.96875 598.855469 C 474.195312 598.808594 474.425781 598.773438 474.660156 598.746094 L 479.199219 598.210938 C 479.429688 598.183594 479.664062 598.167969 479.894531 598.15625 L 484.460938 597.988281 C 484.695312 597.980469 484.929688 597.980469 485.164062 597.988281 L 489.730469 598.183594 C 489.960938 598.195312 490.195312 598.210938 490.425781 598.242188 L 494.960938 598.800781 C 495.195312 598.828125 495.425781 598.867188 495.652344 598.914062 L 500.128906 599.832031 C 500.359375 599.878906 500.585938 599.933594 500.8125 600 L 505.199219 601.273438 C 505.425781 601.339844 505.644531 601.410156 505.863281 601.496094 L 510.136719 603.113281 C 510.355469 603.195312 510.570312 603.289062 510.78125 603.386719 L 514.914062 605.34375 C 515.125 605.445312 515.332031 605.550781 515.53125 605.667969 L 519.496094 607.945312 C 519.695312 608.0625 519.894531 608.1875 520.085938 608.320312 L 523.855469 610.90625 C 524.046875 611.039062 524.234375 611.179688 524.414062 611.328125 L 527.964844 614.207031 C 528.144531 614.355469 528.320312 614.507812 528.488281 614.671875 L 531.796875 617.824219 C 531.964844 617.984375 532.128906 618.152344 532.28125 618.328125 L 535.328125 621.734375 C 535.484375 621.910156 535.632812 622.089844 535.773438 622.277344 L 538.535156 625.917969 C 538.675781 626.101562 538.8125 626.292969 538.9375 626.492188 L 541.398438 630.339844 C 541.527344 630.535156 541.644531 630.738281 541.753906 630.945312 L 543.902344 634.976562 C 546.179688 639.253906 544.558594 644.5625 540.285156 646.839844 C 536.011719 649.117188 530.699219 647.496094 528.421875 643.222656 Z M 528.421875 643.222656 " fill-opacity="1" fill-rule="nonzero"/><path fill="#000000" d="M 344.46875 513.136719 L 345.144531 513.757812 C 352.1875 520.269531 352.617188 531.257812 346.105469 538.304688 C 339.59375 545.347656 328.601562 545.777344 321.558594 539.265625 L 320.886719 538.644531 C 313.84375 532.128906 313.410156 521.140625 319.925781 514.097656 C 326.4375 507.054688 337.425781 506.621094 344.46875 513.136719 Z M 344.46875 513.136719 " fill-opacity="1" fill-rule="nonzero"/><path fill="#000000" d="M 301.199219 603.542969 L 301.179688 603.664062 C 300.675781 606.585938 297.898438 608.546875 294.976562 608.042969 C 292.054688 607.542969 290.09375 604.765625 290.597656 601.84375 L 290.621094 601.71875 C 291.121094 598.796875 293.898438 596.835938 296.820312 597.339844 C 299.742188 597.84375 301.703125 600.621094 301.199219 603.542969 Z M 301.199219 603.542969 " fill-opacity="1" fill-rule="nonzero"/><path fill="#000000" d="M 562.992188 495.175781 L 563.398438 496.023438 C 564.675781 498.699219 563.546875 501.90625 560.871094 503.183594 C 558.195312 504.464844 554.992188 503.332031 553.710938 500.65625 L 553.304688 499.808594 C 552.027344 497.132812 553.15625 493.925781 555.832031 492.648438 C 558.507812 491.371094 561.714844 492.5 562.992188 495.175781 Z M 562.992188 495.175781 " fill-opacity="1" fill-rule="nonzero"/><g clip-path="url(#60b5bf1b65)"><path stroke-linecap="round" transform="matrix(0, -0.642123, 0.630742, 0, 68.553595, 705.200841)" fill="none" stroke-linejoin="round" d="M 500.514828 36.993155 L 500.514828 963.004946 " stroke="#000000" stroke-width="29.17" stroke-opacity="1" stroke-miterlimit="1.5"/></g><g clip-path="url(#43b77c49e1)"><path stroke-linecap="butt" transform="matrix(0, -0.75, 0.75, 0, 76.799625, 393.206281)" fill="none" stroke-linejoin="miter" d="M -0.00100094 0.00154193 L -0.00100094 819.189082 L 24.561499 819.189082 L 24.561499 0.00154193 L -0.00100094 0.00154193 " stroke="#000000" stroke-width="200" stroke-opacity="1" stroke-miterlimit="4"/></g></svg>