<svg xmlns="http://www.w3.org/2000/svg" xmlns:xlink="http://www.w3.org/1999/xlink" width="1024" zoomAndPan="magnify" viewBox="0 0 768 767.999994" height="1024" preserveAspectRatio="xMidYMid meet" version="1.0"><defs><clipPath id="8c4e5fbeb2"><path d="M 209 388.945312 L 559 388.945312 L 559 559 L 209 559 Z M 209 388.945312 " clip-rule="nonzero"/></clipPath><clipPath id="f36f8a4ee3"><path d="M 203 388.945312 L 565 388.945312 L 565 565 L 203 565 Z M 203 388.945312 " clip-rule="nonzero"/></clipPath><clipPath id="0a4ec019a5"><path d="M 377 583 L 391 583 L 391 691.195312 L 377 691.195312 Z M 377 583 " clip-rule="nonzero"/></clipPath><clipPath id="38dbc14701"><path d="M 76.941406 388.945312 L 185 388.945312 L 185 391 L 76.941406 391 Z M 76.941406 388.945312 " clip-rule="nonzero"/></clipPath><clipPath id="5d9ed21d5c"><path d="M 583 388.945312 L 691.191406 388.945312 L 691.191406 391 L 583 391 Z M 583 388.945312 " clip-rule="nonzero"/></clipPath><clipPath id="a8fa4e3cc5"><path d="M 76.941406 76.945312 L 691.191406 76.945312 L 691.191406 378.875 L 76.941406 378.875 Z M 76.941406 76.945312 " clip-rule="nonzero"/></clipPath><clipPath id="283ca0642c"><path d="M 255 297 L 385 297 L 385 378.875 L 255 378.875 Z M 255 297 " clip-rule="nonzero"/></clipPath><clipPath id="630dff1706"><path d="M 79 278 L 143 278 L 143 378.875 L 79 378.875 Z M 79 278 " clip-rule="nonzero"/></clipPath><clipPath id="e61e952876"><path d="M 82 375.683594 L 686 375.683594 L 686 392.316406 L 82 392.316406 Z M 82 375.683594 " clip-rule="nonzero"/></clipPath><clipPath id="76c54e950c"><path d="M 76.941406 374.785156 L 691.191406 374.785156 L 691.191406 393.207031 L 76.941406 393.207031 Z M 76.941406 374.785156 " clip-rule="nonzero"/></clipPath></defs><rect x="-76.8" width="921.6" fill="#ffffff" y="-76.799999" height="921.599993" fill-opacity="1"/><rect x="-76.8" width="921.6" fill="#f9fafb" y="-76.799999" height="921.599993" fill-opacity="1"/><g clip-path="url(#8c4e5fbeb2)"><path fill="#ffffff" d="M 209.769531 384 C 209.769531 287.777344 287.773438 209.753906 383.996094 209.753906 C 480.21875 209.753906 558.222656 287.777344 558.222656 384 C 558.222656 480.222656 480.21875 558.226562 383.996094 558.226562 C 287.773438 558.226562 209.769531 480.222656 209.769531 384 " fill-opacity="1" fill-rule="nonzero"/></g><g clip-path="url(#f36f8a4ee3)"><path fill="#000000" d="M 383.996094 552.097656 C 476.683594 552.097656 552.09375 476.6875 552.09375 384 C 552.09375 291.308594 476.683594 215.878906 383.996094 215.878906 C 291.304688 215.878906 215.894531 291.308594 215.894531 384 C 215.894531 476.6875 291.304688 552.097656 383.996094 552.097656 Z M 383.996094 203.625 C 483.445312 203.625 564.351562 284.550781 564.351562 384 C 564.351562 483.449219 483.445312 564.355469 383.996094 564.355469 C 284.542969 564.355469 203.640625 483.449219 203.640625 384 C 203.640625 284.550781 284.542969 203.625 383.996094 203.625 " fill-opacity="1" fill-rule="nonzero"/></g><g clip-path="url(#0a4ec019a5)"><path fill="#000000" d="M 383.996094 583.246094 C 387.386719 583.246094 390.121094 585.984375 390.121094 589.375 L 390.121094 685.070312 C 390.121094 688.453125 387.386719 691.195312 383.996094 691.195312 C 380.605469 691.195312 377.867188 688.453125 377.867188 685.070312 L 377.867188 589.375 C 377.867188 585.984375 380.605469 583.246094 383.996094 583.246094 " fill-opacity="1" fill-rule="nonzero"/></g><g clip-path="url(#38dbc14701)"><path fill="#000000" d="M 82.925781 377.871094 L 178.621094 377.871094 C 182.011719 377.871094 184.746094 380.609375 184.746094 384 C 184.746094 387.371094 182.011719 390.128906 178.621094 390.128906 L 82.925781 390.128906 C 79.535156 390.128906 76.800781 387.371094 76.800781 384 C 76.800781 380.609375 79.535156 377.871094 82.925781 377.871094 " fill-opacity="1" fill-rule="nonzero"/></g><g clip-path="url(#5d9ed21d5c)"><path fill="#000000" d="M 589.371094 377.871094 L 685.066406 377.871094 C 688.449219 377.871094 691.191406 380.609375 691.191406 384 C 691.191406 387.371094 688.449219 390.128906 685.066406 390.128906 L 589.371094 390.128906 C 585.980469 390.128906 583.242188 387.371094 583.242188 384 C 583.242188 380.609375 585.980469 377.871094 589.371094 377.871094 " fill-opacity="1" fill-rule="nonzero"/></g><path fill="#000000" d="M 238.773438 523.09375 C 240.34375 523.09375 241.917969 523.6875 243.121094 524.894531 C 245.511719 527.28125 245.511719 531.164062 243.121094 533.554688 L 175.433594 601.222656 C 173.042969 603.613281 169.164062 603.613281 166.773438 601.222656 C 164.382812 598.832031 164.382812 594.953125 166.773438 592.5625 L 234.441406 524.894531 C 235.648438 523.6875 237.21875 523.09375 238.773438 523.09375 " fill-opacity="1" fill-rule="nonzero"/><path fill="#000000" d="M 529.21875 523.09375 C 530.792969 523.09375 532.363281 523.6875 533.546875 524.894531 L 601.21875 592.5625 C 603.605469 594.953125 603.605469 598.832031 601.21875 601.222656 C 598.808594 603.613281 594.945312 603.613281 592.558594 601.222656 L 524.886719 533.554688 C 522.5 531.164062 522.5 527.28125 524.886719 524.894531 C 526.074219 523.6875 527.644531 523.09375 529.21875 523.09375 " fill-opacity="1" fill-rule="nonzero"/><path fill="#000000" d="M 194.898438 458 C 197.289062 458 199.554688 459.410156 200.554688 461.738281 C 201.863281 464.863281 200.414062 468.457031 197.289062 469.765625 L 109.195312 507.121094 C 106.070312 508.429688 102.472656 506.980469 101.148438 503.875 C 99.820312 500.75 101.289062 497.15625 104.394531 495.828125 L 192.507812 458.492188 C 193.285156 458.164062 194.101562 458 194.898438 458 " fill-opacity="1" fill-rule="nonzero"/><path fill="#000000" d="M 464.125 566.96875 C 466.511719 566.96875 468.78125 568.359375 469.761719 570.6875 L 507.117188 658.8125 C 508.425781 661.921875 506.976562 665.519531 503.871094 666.847656 C 500.746094 668.160156 497.152344 666.710938 495.824219 663.589844 L 458.484375 575.484375 C 457.179688 572.359375 458.628906 568.765625 461.734375 567.4375 C 462.511719 567.113281 463.328125 566.96875 464.125 566.96875 " fill-opacity="1" fill-rule="nonzero"/><path fill="#000000" d="M 574.664062 454.160156 C 575.421875 454.160156 576.195312 454.28125 576.953125 454.589844 L 665.796875 490.128906 C 668.9375 491.394531 670.472656 494.96875 669.210938 498.117188 C 667.949219 501.242188 664.382812 502.773438 661.25 501.527344 L 572.398438 465.964844 C 569.253906 464.699219 567.742188 461.144531 568.988281 458 C 569.945312 455.609375 572.234375 454.160156 574.664062 454.160156 " fill-opacity="1" fill-rule="nonzero"/><path fill="#000000" d="M 307.707031 568.542969 C 308.484375 568.542969 309.238281 568.683594 309.996094 568.992188 C 313.121094 570.238281 314.652344 573.8125 313.40625 576.957031 L 277.84375 665.800781 C 276.597656 668.945312 273.023438 670.476562 269.898438 669.214844 C 266.753906 667.964844 265.222656 664.398438 266.46875 661.253906 L 302.027344 572.402344 C 302.96875 569.992188 305.277344 568.542969 307.707031 568.542969 " fill-opacity="1" fill-rule="nonzero"/><path fill="#000000" d="M 419.066406 552.507812 C 421.925781 552.507812 424.476562 554.53125 425.070312 557.429688 L 441.390625 638.816406 C 442.0625 642.136719 439.917969 645.359375 436.589844 646.03125 C 433.261719 646.699219 430.054688 644.546875 429.378906 641.226562 L 413.039062 559.839844 C 412.386719 556.53125 414.53125 553.304688 417.839844 552.628906 C 418.25 552.546875 418.65625 552.507812 419.066406 552.507812 " fill-opacity="1" fill-rule="nonzero"/><path fill="#000000" d="M 209.359375 412.921875 C 212.21875 412.921875 214.773438 414.945312 215.363281 417.84375 C 216.019531 421.171875 213.875 424.402344 210.542969 425.074219 L 129.171875 441.394531 C 125.859375 442.070312 122.632812 439.925781 121.960938 436.59375 C 121.304688 433.285156 123.449219 430.058594 126.761719 429.382812 L 208.132812 413.042969 C 208.542969 412.960938 208.949219 412.921875 209.359375 412.921875 " fill-opacity="1" fill-rule="nonzero"/><path fill="#000000" d="M 285.300781 526.160156 C 286.464844 526.160156 287.648438 526.484375 288.691406 527.179688 C 291.511719 529.058594 292.265625 532.859375 290.386719 535.675781 L 244.410156 604.777344 C 242.53125 607.59375 238.730469 608.351562 235.914062 606.472656 C 233.09375 604.613281 232.316406 600.792969 234.195312 597.972656 L 280.195312 528.894531 C 281.378906 527.121094 283.320312 526.160156 285.300781 526.160156 " fill-opacity="1" fill-rule="nonzero"/><path fill="#000000" d="M 532.28125 476.566406 C 533.445312 476.566406 534.632812 476.914062 535.671875 477.609375 L 604.75 523.585938 C 607.589844 525.464844 608.347656 529.265625 606.464844 532.082031 C 604.585938 534.902344 600.789062 535.675781 597.96875 533.777344 L 528.890625 487.800781 C 526.074219 485.921875 525.316406 482.121094 527.175781 479.304688 C 528.359375 477.527344 530.300781 476.566406 532.28125 476.566406 " fill-opacity="1" fill-rule="nonzero"/><path fill="#000000" d="M 236.871094 478.304688 C 238.832031 478.304688 240.753906 479.222656 241.9375 480.980469 C 243.859375 483.777344 243.121094 487.574219 240.324219 489.496094 L 171.777344 536.289062 C 168.980469 538.191406 165.179688 537.476562 163.261719 534.675781 C 161.339844 531.878906 162.074219 528.058594 164.875 526.160156 L 233.421875 479.363281 C 234.484375 478.648438 235.6875 478.304688 236.871094 478.304688 " fill-opacity="1" fill-rule="nonzero"/><path fill="#000000" d="M 484.425781 524.996094 C 486.367188 524.996094 488.285156 525.933594 489.492188 527.671875 L 536.285156 596.21875 C 538.183594 599.015625 537.46875 602.835938 534.671875 604.734375 C 531.875 606.632812 528.074219 605.917969 526.15625 603.121094 L 479.359375 534.574219 C 477.460938 531.777344 478.175781 527.976562 480.972656 526.058594 C 482.015625 525.34375 483.222656 524.996094 484.425781 524.996094 " fill-opacity="1" fill-rule="nonzero"/><path fill="#000000" d="M 559.160156 410.183594 C 559.53125 410.183594 559.898438 410.226562 560.285156 410.285156 L 641.902344 425.339844 C 645.226562 425.972656 647.429688 429.160156 646.816406 432.488281 C 646.199219 435.820312 643.027344 438.023438 639.683594 437.410156 L 558.058594 422.335938 C 554.730469 421.726562 552.523438 418.519531 553.136719 415.210938 C 553.6875 412.246094 556.261719 410.183594 559.160156 410.183594 " fill-opacity="1" fill-rule="nonzero"/><path fill="#000000" d="M 351.664062 553.039062 C 352.050781 553.039062 352.417969 553.078125 352.785156 553.140625 C 356.113281 553.753906 358.320312 556.941406 357.707031 560.289062 L 342.632812 641.914062 C 342.042969 645.242188 338.835938 647.441406 335.503906 646.820312 C 332.175781 646.203125 329.96875 643.015625 330.582031 639.679688 L 345.65625 558.0625 C 346.1875 555.101562 348.78125 553.039062 351.664062 553.039062 " fill-opacity="1" fill-rule="nonzero"/><g clip-path="url(#a8fa4e3cc5)"><path fill="#000000" d="M 76.800781 384 C 76.800781 214.339844 214.335938 76.800781 383.996094 76.800781 C 553.65625 76.800781 691.191406 214.339844 691.191406 384 C 691.191406 553.660156 553.65625 691.195312 383.996094 691.195312 C 214.335938 691.195312 76.800781 553.660156 76.800781 384 M 94.335938 384 C 94.335938 543.972656 224.023438 673.65625 383.996094 673.65625 C 543.96875 673.65625 673.65625 543.972656 673.65625 384 C 673.65625 224.023438 543.96875 94.339844 383.996094 94.339844 C 224.023438 94.339844 94.335938 224.023438 94.335938 384 Z M 94.335938 384 " fill-opacity="1" fill-rule="nonzero"/></g><g clip-path="url(#283ca0642c)"><path fill="#000000" d="M 255.734375 361.917969 C 255.734375 326.261719 284.640625 297.359375 320.292969 297.359375 C 355.949219 297.359375 384.851562 326.261719 384.851562 361.917969 C 384.851562 397.570312 355.949219 426.476562 320.292969 426.476562 C 284.640625 426.476562 255.734375 397.570312 255.734375 361.917969 M 273.273438 361.917969 C 273.273438 387.886719 294.324219 408.9375 320.292969 408.9375 C 346.261719 408.9375 367.3125 387.886719 367.3125 361.917969 C 367.3125 335.949219 346.261719 314.898438 320.292969 314.898438 C 294.324219 314.898438 273.273438 335.949219 273.273438 361.917969 Z M 273.273438 361.917969 " fill-opacity="1" fill-rule="nonzero"/></g><path fill="#000000" d="M 519.699219 272.730469 C 519.699219 243.765625 543.179688 220.285156 572.144531 220.285156 C 601.109375 220.285156 624.589844 243.765625 624.589844 272.730469 C 624.589844 301.695312 601.109375 325.175781 572.144531 325.175781 C 543.179688 325.175781 519.699219 301.695312 519.699219 272.730469 M 537.238281 272.730469 C 537.238281 292.011719 552.867188 307.640625 572.144531 307.640625 C 591.421875 307.640625 607.050781 292.011719 607.050781 272.730469 C 607.050781 253.453125 591.421875 237.824219 572.144531 237.824219 C 552.867188 237.824219 537.238281 253.453125 537.238281 272.730469 Z M 537.238281 272.730469 " fill-opacity="1" fill-rule="nonzero"/><g clip-path="url(#630dff1706)"><path fill="#000000" d="M 85.871094 388.269531 L 90.175781 387.0625 L 89.546875 387.265625 L 93.75 385.738281 L 93.140625 385.984375 L 97.214844 384.144531 L 96.625 384.4375 L 100.550781 382.296875 L 99.984375 382.636719 L 103.742188 380.203125 L 103.199219 380.582031 L 106.761719 377.878906 L 106.25 378.296875 L 109.597656 375.332031 L 109.121094 375.785156 L 112.238281 372.578125 L 111.796875 373.066406 L 114.660156 369.632812 L 114.257812 370.15625 L 116.855469 366.515625 L 116.492188 367.066406 L 118.8125 363.242188 L 118.492188 363.816406 L 120.515625 359.828125 L 120.238281 360.429688 L 121.957031 356.296875 L 121.726562 356.917969 L 123.128906 352.671875 L 122.945312 353.304688 L 124.027344 348.964844 L 123.890625 349.609375 L 124.640625 345.199219 L 124.554688 345.851562 L 124.96875 341.433594 L 124.933594 342.085938 L 125.015625 337.648438 L 125.027344 338.304688 L 124.78125 333.871094 L 124.84375 334.523438 L 124.265625 330.125 L 124.375 330.769531 L 123.46875 326.425781 L 123.628906 327.058594 L 122.402344 322.792969 L 122.605469 323.417969 L 121.066406 319.253906 L 121.316406 319.859375 L 119.46875 315.824219 L 119.761719 316.410156 L 117.621094 312.523438 L 117.957031 313.082031 L 115.53125 309.367188 L 115.910156 309.902344 L 113.210938 306.375 L 113.628906 306.882812 L 110.675781 303.566406 L 111.128906 304.039062 L 107.9375 300.957031 L 108.425781 301.394531 L 105.011719 298.554688 L 105.53125 298.957031 L 101.917969 296.378906 L 102.464844 296.738281 L 98.667969 294.441406 C 94.523438 291.933594 93.199219 286.542969 95.703125 282.398438 C 98.210938 278.257812 103.605469 276.929688 107.746094 279.4375 L 111.542969 281.734375 C 111.730469 281.847656 111.914062 281.96875 112.089844 282.09375 L 115.707031 284.671875 C 115.882812 284.796875 116.058594 284.929688 116.226562 285.070312 L 119.636719 287.90625 C 119.804688 288.046875 119.96875 288.191406 120.125 288.34375 L 123.316406 291.429688 C 123.472656 291.578125 123.625 291.738281 123.769531 291.902344 L 126.722656 295.214844 C 126.867188 295.375 127.007812 295.546875 127.140625 295.71875 L 129.835938 299.242188 C 129.96875 299.417969 130.09375 299.59375 130.214844 299.777344 L 132.640625 303.492188 C 132.761719 303.675781 132.875 303.863281 132.980469 304.054688 L 135.121094 307.941406 C 135.226562 308.132812 135.324219 308.328125 135.414062 308.527344 L 137.261719 312.5625 C 137.355469 312.761719 137.4375 312.960938 137.511719 313.167969 L 139.054688 317.328125 C 139.128906 317.535156 139.195312 317.742188 139.257812 317.949219 L 140.484375 322.214844 C 140.542969 322.425781 140.597656 322.636719 140.640625 322.851562 L 141.542969 327.195312 C 141.589844 327.410156 141.625 327.625 141.652344 327.84375 L 142.230469 332.242188 C 142.257812 332.460938 142.28125 332.675781 142.292969 332.894531 L 142.539062 337.324219 C 142.550781 337.542969 142.554688 337.761719 142.550781 337.980469 L 142.46875 342.417969 C 142.464844 342.636719 142.453125 342.855469 142.429688 343.070312 L 142.015625 347.488281 C 141.996094 347.707031 141.96875 347.925781 141.929688 348.140625 L 141.179688 352.550781 C 141.144531 352.765625 141.097656 352.984375 141.046875 353.195312 L 139.964844 357.535156 C 139.914062 357.75 139.851562 357.960938 139.78125 358.171875 L 138.378906 362.417969 C 138.3125 362.625 138.234375 362.832031 138.148438 363.035156 L 136.429688 367.164062 C 136.347656 367.367188 136.253906 367.566406 136.15625 367.765625 L 134.132812 371.753906 C 134.03125 371.949219 133.925781 372.140625 133.8125 372.328125 L 131.492188 376.15625 C 131.378906 376.34375 131.257812 376.527344 131.128906 376.707031 L 128.53125 380.347656 C 128.402344 380.523438 128.269531 380.699219 128.128906 380.867188 L 125.261719 384.300781 C 125.121094 384.472656 124.976562 384.636719 124.820312 384.792969 L 121.707031 388.003906 C 121.554688 388.160156 121.394531 388.3125 121.230469 388.457031 L 117.882812 391.425781 C 117.71875 391.570312 117.546875 391.710938 117.371094 391.84375 L 113.8125 394.546875 C 113.636719 394.679688 113.457031 394.808594 113.269531 394.925781 L 109.515625 397.359375 C 109.332031 397.476562 109.140625 397.589844 108.949219 397.695312 L 105.023438 399.835938 C 104.828125 399.941406 104.632812 400.039062 104.433594 400.128906 L 100.355469 401.96875 C 100.15625 402.0625 99.949219 402.144531 99.746094 402.21875 L 95.539062 403.746094 C 95.335938 403.824219 95.125 403.890625 94.914062 403.949219 L 90.605469 405.15625 C 85.941406 406.464844 81.101562 403.746094 79.792969 399.082031 C 78.488281 394.417969 81.207031 389.578125 85.871094 388.269531 Z M 85.871094 388.269531 " fill-opacity="1" fill-rule="nonzero"/></g><path fill="#000000" d="M 239.566406 124.769531 L 241.714844 128.804688 L 241.363281 128.199219 L 243.824219 132.046875 L 243.425781 131.472656 L 246.1875 135.113281 L 245.742188 134.574219 L 248.785156 137.980469 L 248.300781 137.476562 L 251.605469 140.632812 L 251.082031 140.167969 L 254.628906 143.050781 L 254.066406 142.628906 L 257.835938 145.21875 L 257.242188 144.84375 L 261.203125 147.121094 L 260.582031 146.796875 L 264.710938 148.753906 L 264.066406 148.480469 L 268.339844 150.097656 L 267.675781 149.875 L 272.066406 151.148438 L 271.386719 150.980469 L 275.863281 151.898438 L 275.171875 151.785156 L 279.707031 152.34375 L 279.007812 152.289062 L 283.574219 152.480469 L 282.875 152.480469 L 287.441406 152.308594 L 286.742188 152.363281 L 291.28125 151.828125 L 290.589844 151.9375 L 295.070312 151.042969 L 294.386719 151.207031 L 298.785156 149.957031 L 298.121094 150.175781 L 302.347656 148.601562 L 301.710938 148.867188 L 305.796875 146.96875 L 305.183594 147.285156 L 309.105469 145.066406 L 308.519531 145.429688 L 312.257812 142.914062 L 311.699219 143.320312 L 315.226562 140.515625 L 314.703125 140.96875 L 318 137.894531 L 317.515625 138.382812 L 320.558594 135.058594 L 320.113281 135.589844 L 322.886719 132.035156 L 322.480469 132.597656 L 324.96875 128.835938 L 324.609375 129.425781 L 326.789062 125.480469 L 326.480469 126.097656 L 328.34375 121.996094 L 328.082031 122.636719 L 329.617188 118.398438 L 329.40625 119.054688 L 330.605469 114.710938 L 330.445312 115.382812 L 331.296875 110.957031 L 331.195312 111.640625 L 331.695312 107.160156 L 331.644531 107.847656 L 331.789062 103.34375 L 331.792969 104.035156 L 331.582031 99.53125 L 331.644531 100.222656 L 331.078125 95.75 C 330.472656 90.945312 333.878906 86.558594 338.683594 85.953125 C 343.488281 85.347656 347.875 88.75 348.480469 93.554688 L 349.042969 98.027344 C 349.074219 98.257812 349.09375 98.484375 349.101562 98.714844 L 349.3125 103.21875 C 349.324219 103.449219 349.324219 103.679688 349.316406 103.910156 L 349.171875 108.414062 C 349.164062 108.644531 349.148438 108.875 349.125 109.101562 L 348.625 113.582031 C 348.597656 113.8125 348.5625 114.039062 348.519531 114.265625 L 347.671875 118.691406 C 347.625 118.917969 347.574219 119.144531 347.511719 119.363281 L 346.316406 123.710938 C 346.257812 123.933594 346.1875 124.152344 346.109375 124.367188 L 344.574219 128.605469 C 344.496094 128.824219 344.40625 129.035156 344.3125 129.246094 L 342.449219 133.351562 C 342.351562 133.558594 342.25 133.765625 342.136719 133.96875 L 339.957031 137.914062 C 339.847656 138.113281 339.726562 138.3125 339.597656 138.503906 L 337.113281 142.265625 C 336.988281 142.457031 336.851562 142.644531 336.710938 142.824219 L 333.9375 146.378906 C 333.796875 146.558594 333.648438 146.734375 333.492188 146.90625 L 330.449219 150.230469 C 330.292969 150.398438 330.128906 150.5625 329.960938 150.71875 L 326.664062 153.792969 C 326.496094 153.953125 326.320312 154.101562 326.140625 154.246094 L 322.613281 157.050781 C 322.433594 157.195312 322.246094 157.328125 322.054688 157.457031 L 318.316406 159.976562 C 318.125 160.105469 317.929688 160.226562 317.730469 160.339844 L 313.804688 162.554688 C 313.605469 162.667969 313.398438 162.773438 313.191406 162.871094 L 309.105469 164.773438 C 308.894531 164.871094 308.683594 164.957031 308.464844 165.039062 L 304.242188 166.609375 C 304.023438 166.691406 303.804688 166.765625 303.582031 166.828125 L 299.183594 168.078125 C 298.960938 168.140625 298.734375 168.195312 298.503906 168.242188 L 294.023438 169.136719 C 293.792969 169.183594 293.5625 169.21875 293.332031 169.246094 L 288.792969 169.78125 C 288.5625 169.808594 288.328125 169.828125 288.09375 169.835938 L 283.527344 170.007812 C 283.292969 170.015625 283.0625 170.015625 282.828125 170.003906 L 278.261719 169.808594 C 278.027344 169.800781 277.796875 169.78125 277.5625 169.753906 L 273.027344 169.195312 C 272.796875 169.164062 272.566406 169.128906 272.335938 169.082031 L 267.859375 168.160156 C 267.632812 168.113281 267.402344 168.058594 267.179688 167.992188 L 262.789062 166.71875 C 262.566406 166.65625 262.34375 166.582031 262.125 166.5 L 257.851562 164.878906 C 257.632812 164.796875 257.417969 164.707031 257.207031 164.605469 L 253.078125 162.648438 C 252.867188 162.550781 252.660156 162.441406 252.457031 162.324219 L 248.496094 160.046875 C 248.292969 159.929688 248.097656 159.804688 247.902344 159.671875 L 244.136719 157.085938 C 243.945312 156.953125 243.757812 156.8125 243.574219 156.667969 L 240.027344 153.785156 C 239.847656 153.640625 239.671875 153.484375 239.5 153.324219 L 236.195312 150.167969 C 236.027344 150.007812 235.863281 149.839844 235.707031 149.664062 L 232.664062 146.257812 C 232.507812 146.082031 232.359375 145.902344 232.21875 145.71875 L 229.453125 142.078125 C 229.3125 141.890625 229.179688 141.699219 229.054688 141.503906 L 226.589844 137.652344 C 226.464844 137.457031 226.347656 137.253906 226.238281 137.050781 L 224.089844 133.015625 C 221.8125 128.742188 223.429688 123.429688 227.707031 121.152344 C 231.980469 118.875 237.292969 120.496094 239.566406 124.769531 Z M 239.566406 124.769531 " fill-opacity="1" fill-rule="nonzero"/><path fill="#000000" d="M 423.519531 254.859375 L 422.847656 254.238281 C 415.804688 247.722656 415.375 236.734375 421.886719 229.691406 C 428.398438 222.648438 439.386719 222.214844 446.433594 228.730469 L 447.105469 229.351562 C 454.148438 235.863281 454.578125 246.851562 448.066406 253.898438 C 441.554688 260.941406 430.5625 261.371094 423.519531 254.859375 Z M 423.519531 254.859375 " fill-opacity="1" fill-rule="nonzero"/><path fill="#000000" d="M 466.789062 164.453125 L 466.8125 164.328125 C 467.316406 161.40625 470.089844 159.445312 473.011719 159.949219 C 475.933594 160.453125 477.894531 163.230469 477.390625 166.152344 L 477.371094 166.273438 C 476.867188 169.195312 474.089844 171.15625 471.167969 170.652344 C 468.246094 170.152344 466.285156 167.375 466.789062 164.453125 Z M 466.789062 164.453125 " fill-opacity="1" fill-rule="nonzero"/><path fill="#000000" d="M 205 272.816406 L 204.59375 271.96875 C 203.3125 269.292969 204.445312 266.089844 207.121094 264.808594 C 209.792969 263.53125 213 264.660156 214.277344 267.335938 L 214.683594 268.1875 C 215.964844 270.859375 214.832031 274.066406 212.15625 275.34375 C 209.484375 276.625 206.277344 275.492188 205 272.816406 Z M 205 272.816406 " fill-opacity="1" fill-rule="nonzero"/><g clip-path="url(#e61e952876)"><path stroke-linecap="round" transform="matrix(0, 0.642123, -0.630742, 0, 699.436264, 62.789813)" fill="none" stroke-linejoin="round" d="M 500.511133 36.989463 L 500.511133 963.007447 " stroke="#000000" stroke-width="29.17" stroke-opacity="1" stroke-miterlimit="1.5"/></g><g clip-path="url(#76c54e950c)"><path stroke-linecap="butt" transform="matrix(0, 0.75, -0.75, 0, 691.190249, 374.784376)" fill="none" stroke-linejoin="miter" d="M 0.00104053 -0.00154327 L 0.00104053 819.185997 L 24.56354 819.185997 L 24.56354 -0.00154327 L 0.00104053 -0.00154327 " stroke="#000000" stroke-width="200" stroke-opacity="1" stroke-miterlimit="4"/></g></svg>